<svg width="40" height="40" viewBox="0 0 40 40" fill="none" xmlns="http://www.w3.org/2000/svg">
<g clip-path="url(#clip0_74_317)">
<path d="M20 0C8.955 0 0 8.95375 0 20C0 31.0462 8.95375 40 20 40C31.0462 40 40 31.0462 40 20C40 8.95375 31.0462 0 20 0ZM20 37.54C10.35 37.54 2.5 29.65 2.5 20C2.5 10.35 10.35 2.5 20 2.5C29.65 2.5 37.5 10.35 37.5 20C37.5 29.65 29.65 37.54 20 37.54ZM28.75 18.75H21.25V11.25C21.25 10.56 20.69 10 20 10C19.31 10 18.75 10.56 18.75 11.25V18.75H11.25C10.56 18.75 10 19.31 10 20C10 20.69 10.56 21.25 11.25 21.25H18.75V28.75C18.75 29.44 19.31 30 20 30C20.69 30 21.25 29.44 21.25 28.75V21.25H28.75C29.44 21.25 30 20.69 30 20C30 19.31 29.44 18.75 28.75 18.75Z" fill="white"/>
</g>
<defs>
<clipPath id="clip0_74_317">
<rect width="40" height="40" rx="20" fill="white"/>
</clipPath>
</defs>
</svg>
