<svg width="25" height="25" viewBox="0 0 25 25" fill="none" xmlns="http://www.w3.org/2000/svg">
<path d="M18.75 12.5C15.3125 12.5 12.5 15.3125 12.5 18.75C12.5 22.1875 15.3125 25 18.75 25C22.1875 25 25 22.1875 25 18.75C25 15.3125 22.1875 12.5 18.75 12.5ZM21.0938 19.5312H19.5312V21.0938C19.5312 21.5625 19.2188 21.875 18.75 21.875C18.2812 21.875 17.9688 21.5625 17.9688 21.0938V19.5312H16.4062C15.9375 19.5312 15.625 19.2188 15.625 18.75C15.625 18.2812 15.9375 17.9688 16.4062 17.9688H17.9688V16.4062C17.9688 15.9375 18.2812 15.625 18.75 15.625C19.2188 15.625 19.5312 15.9375 19.5312 16.4062V17.9688H21.0938C21.5625 17.9688 21.875 18.2812 21.875 18.75C21.875 19.2188 21.5625 19.5312 21.0938 19.5312Z" fill="#312F30"/>
<path d="M11.0938 20.3125C11.0156 19.8438 10.9375 19.2969 10.9375 18.75H5.9375C5.70313 18.75 5.46875 18.5156 5.46875 18.2812C5.46875 18.0469 5.625 17.8125 5.85938 17.8125L11.1719 16.9531C11.9531 13.5156 15.0781 10.9375 18.75 10.9375C19.5313 10.9375 20.2344 11.0156 20.9375 11.25L21.875 6.40625C21.9531 6.01562 21.6406 5.54688 21.25 5.46875C20.8594 5.39062 20.3906 5.70313 20.3125 6.09375L20.1562 7.03125H5.15625V6.95312C5.625 5.9375 5.625 4.76562 5 3.82813C4.45313 2.89063 3.4375 2.34375 2.34375 2.34375H0.78125C0.3125 2.34375 0 2.65625 0 3.125C0 3.59375 0.3125 3.90625 0.78125 3.90625H2.34375C2.89063 3.90625 3.4375 4.21875 3.75 4.6875C4.0625 5.15625 4.0625 5.78125 3.82813 6.25L3.20313 7.5C3.20313 7.57813 3.20313 7.57812 3.125 7.65625C3.125 7.65625 3.125 7.73438 3.125 7.8125C3.125 7.89062 3.125 7.89062 3.125 7.96875C3.125 8.04688 3.125 8.04687 3.125 8.125L6.09375 16.1719L5.625 16.25C4.60938 16.4062 3.90625 17.2656 3.90625 18.2812C3.90625 19.0625 4.29688 19.6875 4.92188 20.0781C4.76563 20.3906 4.6875 20.7031 4.6875 21.0938C4.6875 22.4219 5.70313 23.4375 7.03125 23.4375C8.35938 23.4375 9.375 22.4219 9.375 21.0938C9.375 20.7812 9.29688 20.5469 9.21875 20.3125H11.0938ZM7.03125 21.875C6.5625 21.875 6.25 21.5625 6.25 21.0938C6.25 20.625 6.5625 20.3125 7.03125 20.3125C7.5 20.3125 7.8125 20.625 7.8125 21.0938C7.8125 21.5625 7.5 21.875 7.03125 21.875Z" fill="#312F30"/>
</svg>
